<?xml version="1.0" standalone="no"?>
<!DOCTYPE svg PUBLIC "-//W3C//DTD SVG 20010904//EN"
 "http://www.w3.org/TR/2001/REC-SVG-20010904/DTD/svg10.dtd">
<svg version="1.0" xmlns="http://www.w3.org/2000/svg"
 width="1254.000000pt" height="1254.000000pt" viewBox="0 0 1254.000000 1254.000000"
 preserveAspectRatio="xMidYMid meet">

<g transform="translate(0.000000,1254.000000) scale(0.100000,-0.100000)"
fill="#000000" stroke="none">
<path d="M0 6270 l0 -6270 6270 0 6270 0 0 6270 0 6270 -6270 0 -6270 0 0
-6270z m10633 -2 l-2 -4362 -4360 -1 -4361 0 0 4362 0 4362 33 3 c17 2 1981 2
4362 1 l4330 -2 -2 -4363z"/>
<path d="M2672 6273 l3 -3598 3598 -3 3597 -2 0 3600 0 3600 -3600 0 -3600 0
2 -3597z m3858 1262 c404 -98 717 -355 877 -719 357 -808 -204 -1722 -1082
-1763 -424 -20 -838 193 -1079 555 -257 386 -284 847 -76 1267 172 347 506
597 895 670 102 19 370 13 465 -10z"/>
</g>
</svg>
